<?xml version="1.0" standalone="no"?>
<!DOCTYPE svg PUBLIC "-//W3C//DTD SVG 20010904//EN"
 "http://www.w3.org/TR/2001/REC-SVG-20010904/DTD/svg10.dtd">
<svg version="1.0" xmlns="http://www.w3.org/2000/svg"
 width="262.000000pt" height="78.000000pt" viewBox="0 0 262.000000 78.000000"
 preserveAspectRatio="xMidYMid meet">
<metadata>
Created by potrace 1.15, written by Peter Selinger 2001-2017
</metadata>
<g transform="translate(0.000000,78.000000) scale(0.100000,-0.100000)"
fill="#000000" stroke="none">
<path d="M330 757 c-77 -28 -136 -63 -197 -120 -54 -50 -133 -158 -133 -182 0
-24 79 -132 133 -182 111 -103 214 -143 367 -143 155 0 258 41 373 149 55 51
127 151 127 176 0 21 -69 121 -109 159 l-31 30 -43 -42 -43 -43 4 -83 c4 -67
1 -91 -15 -127 -80 -180 -308 -230 -455 -100 -118 104 -118 308 0 412 56 49
114 71 191 71 69 0 129 -18 163 -49 17 -15 20 -15 48 12 17 16 27 32 23 36 -5
4 -36 17 -70 28 -90 30 -244 29 -333 -2z"/>
</g>
</svg>
